<svg id="Layer_1" data-name="Layer 1" xmlns="http://www.w3.org/2000/svg" viewBox="0 0 155.8 26.7"><defs><style>.cls-1{fill:#e1e2e0;}</style></defs><path class="cls-1" d="M26.9,22.3a3.56,3.56,0,0,1-1.9-.5,2.59,2.59,0,0,1-1.1-1.4,5.85,5.85,0,0,1-.4-1.9,5.37,5.37,0,0,1,.5-2.1,5.86,5.86,0,0,1,1.3-1.9,6.92,6.92,0,0,1,2.2-1.4,7.49,7.49,0,0,1,3.1-.5,24.77,24.77,0,0,1,2.9.2c.9.1,1.8.3,2.6.4a24,24,0,0,0,2.8.3l-2.1,2.4-3.1-1-.1-.3a5.08,5.08,0,0,0-1.7-.3,3.69,3.69,0,0,0-2.7,1.1,4.08,4.08,0,0,0-1.1,3,8.6,8.6,0,0,0,.1,1.6,14.24,14.24,0,0,0,.5,1.6,4.05,4.05,0,0,1-.9.5A1.49,1.49,0,0,1,26.9,22.3ZM27.6,34a2,2,0,0,1-1.5-.6,1.73,1.73,0,0,1-.6-1.2,1.45,1.45,0,0,1,.2-.7,3.55,3.55,0,0,0,1.9-.8,7.09,7.09,0,0,0,1.6-1.8,24.27,24.27,0,0,0,1.4-2.8q.6-1.65,1.2-3.6a38.3,38.3,0,0,0,1.1-4.3c.4-1.5.7-3.1,1.1-4.8l1.8,3.2c-.5,3-1.1,5.5-1.6,7.5s-1.1,3.7-1.6,5a19.57,19.57,0,0,1-1.6,3,7.12,7.12,0,0,1-1.6,1.5A4.21,4.21,0,0,1,27.6,34Zm9.8-.7L35.5,18.7l-.2-.2-1.3-5h5l1.6,12.7h.1L47,13.6h4.9l-4.8,5.2L39.9,33.4H37.4Zm11.5,4.8a2.77,2.77,0,0,1-1.3-.3,2.59,2.59,0,0,1-1.1-1,6.55,6.55,0,0,1-.7-2,15.18,15.18,0,0,1-.2-3.2c0-1,.1-2.2.2-3.6a46.56,46.56,0,0,1,.6-4.7c.3-1.7.6-3.7,1.1-5.8l-.1-.6L47,13.5h5c-.2,1.2-.4,2.4-.6,3.8s-.4,2.7-.6,4-.3,2.7-.5,4a23.58,23.58,0,0,0-.2,3.7,28.09,28.09,0,0,0,.3,4.5A3.73,3.73,0,0,0,51.7,36a2,2,0,0,1-.5.9,3.92,3.92,0,0,1-1,.8A3.26,3.26,0,0,1,48.9,38.1Z" transform="translate(-23.5 -12.6)"/><path class="cls-1" d="M57.3,33.9a6.77,6.77,0,0,1-2.6-.4,5.67,5.67,0,0,1-1.8-1.2,5.44,5.44,0,0,1-1.1-1.8,8.52,8.52,0,0,1-.3-2.3,14,14,0,0,1,.6-4.1,9.88,9.88,0,0,1,1.7-3.4,9.18,9.18,0,0,1,2.8-2.4,8,8,0,0,1,3.9-.9,7.66,7.66,0,0,1,2.7.4A5.67,5.67,0,0,1,65,19a4,4,0,0,1,1,1.8,8.33,8.33,0,0,1,.3,2.2,14,14,0,0,1-.6,4.1A11.37,11.37,0,0,1,64,30.6a8.06,8.06,0,0,1-6.7,3.3Zm.5-1.8a2.08,2.08,0,0,0,1.5-.7,6.15,6.15,0,0,0,1.1-1.8,18.29,18.29,0,0,0,.8-2.5c.2-.9.3-1.8.5-2.8a23.48,23.48,0,0,0,.1-2.6,3,3,0,0,0-.4-1.8,1.42,1.42,0,0,0-1.4-.7,2.08,2.08,0,0,0-1.5.7,5,5,0,0,0-1.1,1.8,14.7,14.7,0,0,0-.8,2.5,23.25,23.25,0,0,0-.5,2.8,23.48,23.48,0,0,0-.1,2.6,3.42,3.42,0,0,0,.4,1.8A1.42,1.42,0,0,0,57.8,32.1Z" transform="translate(-23.5 -12.6)"/><path class="cls-1" d="M71.2,34a14.92,14.92,0,0,1-2.1-.2,6,6,0,0,1-1.9-.6,5,5,0,0,1-1.4-1,2,2,0,0,1-.5-1.5,2.12,2.12,0,0,1,.4-1.4,2.84,2.84,0,0,1,1.1-.8,3.65,3.65,0,0,1,1.5-.3,3.75,3.75,0,0,1,1,.1,2,2,0,0,1,.8.4,2.92,2.92,0,0,0-.2.9,3.08,3.08,0,0,0-.1,1,1.43,1.43,0,0,0,.6,1.2,2.17,2.17,0,0,0,1.4.5,2.54,2.54,0,0,0,1.6-.5,1.61,1.61,0,0,0,.6-1.3,2,2,0,0,0-.6-1.4A8.7,8.7,0,0,0,72,27.9c-.6-.4-1.1-.8-1.7-1.2s-1.1-.8-1.6-1.2A4.43,4.43,0,0,1,67.5,24a3.81,3.81,0,0,1-.4-1.9,3.17,3.17,0,0,1,.6-2,5,5,0,0,1,1.7-1.5,9.17,9.17,0,0,1,2.3-.9,10.9,10.9,0,0,1,2.6-.3,9.86,9.86,0,0,1,2.4.3,4.21,4.21,0,0,1,2,1,2.66,2.66,0,0,1,0,3.8,3.08,3.08,0,0,1-1.9.6,3.75,3.75,0,0,1-1-.1,3.55,3.55,0,0,1-.9-.4c.1-.3.2-.5.3-.8a2.49,2.49,0,0,0,.1-.8,2.17,2.17,0,0,0-.5-1.4,1.68,1.68,0,0,0-1.4-.6,2.3,2.3,0,0,0-1.4.4,1.49,1.49,0,0,0-.6,1.3,1.75,1.75,0,0,0,.4,1.2A5.73,5.73,0,0,0,72.9,23a13,13,0,0,0,1.5,1c.7.4,1.3.9,1.9,1.3a4.92,4.92,0,0,1,1.4,1.5,3.32,3.32,0,0,1,.5,2,4.11,4.11,0,0,1-.9,2.6,5.84,5.84,0,0,1-2.5,1.7A6.87,6.87,0,0,1,71.2,34Z" transform="translate(-23.5 -12.6)"/><path class="cls-1" d="M83.7,34a14.92,14.92,0,0,1-2.1-.2,6,6,0,0,1-1.9-.6,5,5,0,0,1-1.4-1,2,2,0,0,1-.5-1.5,2.12,2.12,0,0,1,.4-1.4,2.84,2.84,0,0,1,1.1-.8,3.65,3.65,0,0,1,1.5-.3,3.75,3.75,0,0,1,1,.1,2,2,0,0,1,.8.4,2.92,2.92,0,0,0-.2.9,3.08,3.08,0,0,0-.1,1,1.43,1.43,0,0,0,.6,1.2,2.17,2.17,0,0,0,1.4.5,2.54,2.54,0,0,0,1.6-.5,1.61,1.61,0,0,0,.6-1.3,2,2,0,0,0-.6-1.4,8.7,8.7,0,0,0-1.4-1.2c-.6-.4-1.1-.8-1.7-1.2s-1.1-.8-1.6-1.2A4.43,4.43,0,0,1,80,24a3.81,3.81,0,0,1-.4-1.9,3.17,3.17,0,0,1,.6-2,5,5,0,0,1,1.7-1.5,9.17,9.17,0,0,1,2.3-.9,10.9,10.9,0,0,1,2.6-.3,9.86,9.86,0,0,1,2.4.3,4.21,4.21,0,0,1,2,1,2.66,2.66,0,0,1,0,3.8,3.08,3.08,0,0,1-1.9.6,3.75,3.75,0,0,1-1-.1,3.55,3.55,0,0,1-.9-.4c.1-.3.2-.5.3-.8a2.49,2.49,0,0,0,.1-.8,2.17,2.17,0,0,0-.5-1.4,1.56,1.56,0,0,0-1.4-.6,2.3,2.3,0,0,0-1.4.4,1.49,1.49,0,0,0-.6,1.3,1.75,1.75,0,0,0,.4,1.2A5.73,5.73,0,0,0,85.4,23a13,13,0,0,0,1.5,1c.7.4,1.3.9,1.9,1.3a4.92,4.92,0,0,1,1.4,1.5,3.32,3.32,0,0,1,.5,2,4.11,4.11,0,0,1-.9,2.6,5.84,5.84,0,0,1-2.5,1.7A6.87,6.87,0,0,1,83.7,34Z" transform="translate(-23.5 -12.6)"/><path class="cls-1" d="M94.4,39.3a2.79,2.79,0,0,1-1.8-.6,2.44,2.44,0,0,1-.6-1.8,3.53,3.53,0,0,1,.4-1.7,14.31,14.31,0,0,1,1.1-1.5,5.26,5.26,0,0,1,1.4-1.2l-2,.1c0-1.6-.1-3.1-.1-4.4s-.1-2.5-.2-3.7-.2-2.2-.3-3.2a7.74,7.74,0,0,0-.4-2,2.72,2.72,0,0,0-.8-1,3.75,3.75,0,0,1,1.2-.7,3.64,3.64,0,0,1,1.5-.2,3.58,3.58,0,0,1,1.9.4,2.07,2.07,0,0,1,.9,1.3,10.9,10.9,0,0,1,.4,2.2v8.8a34.47,34.47,0,0,0,2-3.2,16.29,16.29,0,0,0,1.4-3.4,10.6,10.6,0,0,0,.5-3.5v-.8a2.92,2.92,0,0,0-.2-.9,3,3,0,0,1,1.1-.7,3.19,3.19,0,0,1,1.4-.3,5,5,0,0,1,1.2.2,2,2,0,0,1,.8.8,2.9,2.9,0,0,1,.3,1.4,6,6,0,0,1-.4,2.2,12.81,12.81,0,0,1-1.1,2.4,13.25,13.25,0,0,1-1.6,2.5c-.6.9-1.3,1.7-1.9,2.5s-1.4,1.5-2.1,2.2a20.36,20.36,0,0,0-1.5,1.7,3.48,3.48,0,0,0-.6,2.1,3.53,3.53,0,0,0,.3,1.4,3.6,3.6,0,0,0,.8,1.2,3.39,3.39,0,0,1-1.4.9A2.2,2.2,0,0,1,94.4,39.3Z" transform="translate(-23.5 -12.6)"/><path class="cls-1" d="M118.4,33.9a7.09,7.09,0,0,1-5.3-2c-1.2-1.3-1.8-3.3-1.8-5.9a15.83,15.83,0,0,1,.5-3.8,17.83,17.83,0,0,1,1.4-3.6,12.88,12.88,0,0,1,2.2-3,9.19,9.19,0,0,1,3.1-2,10,10,0,0,1,3.9-.7,6.68,6.68,0,0,1,3,.6,4.24,4.24,0,0,1,1.8,1.7,4.71,4.71,0,0,1,0,4.6,5,5,0,0,1-1.5,1.7,4.1,4.1,0,0,1-2.2.7,3.48,3.48,0,0,1-2.1-.6,1.94,1.94,0,0,1-.8-1.6c0-.3,0-.5.1-.6h.4a2.89,2.89,0,0,0,1.4-.4,2,2,0,0,0,.8-1,2.61,2.61,0,0,0,.3-1.1,2.39,2.39,0,0,0-.5-1.4,1.75,1.75,0,0,0-1.5-.6,3.29,3.29,0,0,0-1.9.6,6.3,6.3,0,0,0-1.5,1.7,13.35,13.35,0,0,0-1.1,2.4,22.91,22.91,0,0,0-.7,2.8,13.68,13.68,0,0,0-.2,2.8,11.15,11.15,0,0,0,.3,2.7,3,3,0,0,0,1.1,1.7,3.28,3.28,0,0,0,2.1.6,4,4,0,0,0,1.5-.3,5.67,5.67,0,0,0,1.3-.8,5.8,5.8,0,0,0,1-1.2,9.14,9.14,0,0,0,.7-1.4,1.78,1.78,0,0,1,1.2.9,2.41,2.41,0,0,1,.4,1.5,3.69,3.69,0,0,1-.5,1.7,5.52,5.52,0,0,1-1.4,1.7,6.74,6.74,0,0,1-2.4,1.2A9.34,9.34,0,0,1,118.4,33.9Z" transform="translate(-23.5 -12.6)"/><path class="cls-1" d="M132.3,33.9a6.77,6.77,0,0,1-2.6-.4,5.67,5.67,0,0,1-1.8-1.2,5.44,5.44,0,0,1-1.1-1.8,8.52,8.52,0,0,1-.3-2.3,14,14,0,0,1,.6-4.1,9.88,9.88,0,0,1,1.7-3.4,9.18,9.18,0,0,1,2.8-2.4,8,8,0,0,1,3.9-.9,7.66,7.66,0,0,1,2.7.4A5.67,5.67,0,0,1,140,19a4,4,0,0,1,1,1.8,8.33,8.33,0,0,1,.3,2.2,14,14,0,0,1-.6,4.1,11.37,11.37,0,0,1-1.7,3.5,8.06,8.06,0,0,1-6.7,3.3Zm.5-1.8a2.08,2.08,0,0,0,1.5-.7,6.15,6.15,0,0,0,1.1-1.8,18.29,18.29,0,0,0,.8-2.5c.2-.9.3-1.8.5-2.8a23.48,23.48,0,0,0,.1-2.6,3,3,0,0,0-.4-1.8c-.2-.5-.7-.7-1.4-.7a2.08,2.08,0,0,0-1.5.7,5,5,0,0,0-1.1,1.8,14.7,14.7,0,0,0-.8,2.5c-.2.9-.3,1.8-.5,2.8a23.48,23.48,0,0,0-.1,2.6,3.42,3.42,0,0,0,.4,1.8A1.51,1.51,0,0,0,132.8,32.1Z" transform="translate(-23.5 -12.6)"/><path class="cls-1" d="M145.9,33.9a4,4,0,0,1-2.6-.7,4.26,4.26,0,0,1-1.5-2,9.43,9.43,0,0,1-.5-3,14.21,14.21,0,0,1,.6-4.2,10.08,10.08,0,0,1,1.8-3.4,8.86,8.86,0,0,1,2.8-2.3,8.08,8.08,0,0,1,3.4-.8,9.48,9.48,0,0,1,3.2.6l3.9-.5-2.3,12a1.27,1.27,0,0,1-.1.6c0,.2-.1.5-.1.6a1.61,1.61,0,0,0,.3.9,1,1,0,0,0,.9.4,1.45,1.45,0,0,1-.7,1,2.38,2.38,0,0,1-1.1.6,5.07,5.07,0,0,1-1.3.2,2.93,2.93,0,0,1-1.6-.4,1.76,1.76,0,0,1-.9-1.3,5.16,5.16,0,0,1-1.9,1.2A4.13,4.13,0,0,1,145.9,33.9Zm1.6-1.8a2,2,0,0,0,1.6-.7,5.45,5.45,0,0,0,1-1.7,18,18,0,0,0,.5-1.9l1.4-7.9a4.67,4.67,0,0,0-1-.5,3.55,3.55,0,0,0-1-.2,2.45,2.45,0,0,0-1.6.6,4.34,4.34,0,0,0-1.2,1.7,13.49,13.49,0,0,0-.8,2.4,12.59,12.59,0,0,0-.4,2.7,23.48,23.48,0,0,0-.1,2.6,5.41,5.41,0,0,0,.3,1.9A1.2,1.2,0,0,0,147.5,32.1Z" transform="translate(-23.5 -12.6)"/><path class="cls-1" d="M161.6,34a14.92,14.92,0,0,1-2.1-.2,6,6,0,0,1-1.9-.6,5,5,0,0,1-1.4-1,2,2,0,0,1-.5-1.5,2.12,2.12,0,0,1,.4-1.4,2.84,2.84,0,0,1,1.1-.8,3.34,3.34,0,0,1,1.5-.3,3.75,3.75,0,0,1,1,.1,2,2,0,0,1,.8.4,2.92,2.92,0,0,0-.2.9,3.08,3.08,0,0,0-.1,1,1.43,1.43,0,0,0,.6,1.2,2.17,2.17,0,0,0,1.4.5,2.54,2.54,0,0,0,1.6-.5,1.61,1.61,0,0,0,.6-1.3,2,2,0,0,0-.6-1.4,8.7,8.7,0,0,0-1.4-1.2c-.6-.4-1.1-.8-1.7-1.2s-1.1-.8-1.6-1.2a4.43,4.43,0,0,1-1.2-1.5,3.83,3.83,0,0,1-.5-1.9,3.17,3.17,0,0,1,.6-2,5,5,0,0,1,1.7-1.5,9.17,9.17,0,0,1,2.3-.9,10.9,10.9,0,0,1,2.6-.3,9.86,9.86,0,0,1,2.4.3,4.21,4.21,0,0,1,2,1,2.51,2.51,0,0,1-1.9,4.4,3.75,3.75,0,0,1-1-.1,3.55,3.55,0,0,1-.9-.4c.1-.3.2-.5.3-.8a2.49,2.49,0,0,0,.1-.8,2.17,2.17,0,0,0-.5-1.4,2,2,0,0,0-1.4-.5,2.3,2.3,0,0,0-1.4.4,1.49,1.49,0,0,0-.6,1.3,1.75,1.75,0,0,0,.4,1.2,5.73,5.73,0,0,0,1.1,1.1,13,13,0,0,0,1.5,1c.7.4,1.3.9,1.9,1.3a4.92,4.92,0,0,1,1.4,1.5,3.32,3.32,0,0,1,.5,2,4.11,4.11,0,0,1-.9,2.6,5.84,5.84,0,0,1-2.5,1.7A7.24,7.24,0,0,1,161.6,34Z" transform="translate(-23.5 -12.6)"/><path class="cls-1" d="M172.8,33.9a2.72,2.72,0,0,1-2-.7,2.13,2.13,0,0,1-.8-1.9,10.36,10.36,0,0,1,.1-1.6,15.52,15.52,0,0,1,.4-2.1c.1-.8.3-1.5.4-2.2a6.09,6.09,0,0,0,.3-1.7l.9-4.4h-1.9l.1-.9a13.31,13.31,0,0,0,3.2-1.5,16.1,16.1,0,0,0,3-2.1h1.2L177,18h2.3l-.3,1.3h-2.3L174.8,29c-.1.3-.1.5-.2.8a2,2,0,0,0-.1.7c0,.6.1,1.1.4,1.3a1.78,1.78,0,0,0,1.3.1,2.73,2.73,0,0,1-.9,1.2,3.38,3.38,0,0,1-1.2.6A2.55,2.55,0,0,1,172.8,33.9Z" transform="translate(-23.5 -12.6)"/></svg>