<svg width="288" height="96" xmlns="http://www.w3.org/2000/svg"><g fill="none" fill-rule="evenodd"><path d="M90.296 87.202c-5.66 0-10.386-1.442-14.066-4.304-2.942-2.29-4.938-5.128-5.968-8.5-.594.09-1.242.172-1.946.258-2.128.278-4.2.398-6.222.398-3.574 0-6.946-.472-10.02-1.406-3.148-.954-5.958-2.382-8.332-4.266a19.871 19.871 0 01-5.726-7.126c-1.336-2.792-2.016-6-2.016-9.55 0-4.996 1.542-9.386 4.586-13.086 2.856-3.46 6.622-6.352 11.204-8.582 4.418-2.16 9.472-3.782 15.004-4.832a90.65 90.65 0 0114.532-1.528c1.044-2.278 2.592-4.364 4.622-6.22 2.468-2.25 5.45-4.184 8.872-5.754 3.36-1.546 7.148-2.734 11.258-3.52A65.302 65.302 0 01118.496 8c3.636 0 7.656.344 11.938 1.008 4.196.664 8.48 1.484 12.726 2.438 4.25.964 8.364 2 12.368 3.114 3.492.98 6.656 1.876 9.488 2.688 4.734-2.312 9.262-4.164 13.476-5.5 4.668-1.488 9.918-2.246 15.61-2.246 2.742 0 5.582.39 8.422 1.152 2.246.606 4.218 1.296 5.878 2.058 2.624-.872 5.372-1.66 8.214-2.376 3.41-.86 7.3-1.29 11.532-1.29 5.25 0 9.55 1.036 12.786 3.094 4.558 2.902 5.508 6.286 5.508 8.606 0 3.234-1.434 7.824-8.32 11.304-4.442 2.25-10.652 3.574-18.902 4.032a23.13 23.13 0 01-1.542 4.68c2.708 1.258 5.164 2.992 7.348 5.168 3.27 3.26 4.922 7.26 4.922 11.872 0 4.086-1.402 7.894-4.184 11.34-2.59 3.184-5.958 5.954-10.02 8.23-3.96 2.218-8.48 3.958-13.43 5.172a62.455 62.455 0 01-14.812 1.808c-3.55 0-7.136-.292-10.678-.87-3.518-.582-7.444-1.538-11.672-2.876-4.14-1.312-8.956-3.112-14.288-5.348-4.882-2.05-10.656-4.57-17.316-7.558a301.171 301.171 0 01-9.79 6.774c-3.812 2.52-7.602 4.722-11.266 6.554-3.726 1.868-7.472 3.368-11.124 4.458-3.768 1.144-7.486 1.716-11.072 1.716zm-8.524-15.434c.75 1.57 1.886 2.878 3.438 3.984 2.458 1.746 5.246 2.602 8.54 2.602 2.876 0 5.832-.462 8.796-1.372a57.762 57.762 0 009.27-3.786 85.945 85.945 0 009.262-5.496 216.881 216.881 0 004.684-3.292 548.472 548.472 0 01-5.816-2.426c-3.012-1.278-5.632-2.294-7.804-3.044a339.93 339.93 0 01-13.938 6.622c-4.794 2.164-10.31 4.242-16.432 6.208zm67.168-8.544a244.157 244.157 0 0014.296 5.624 177.23 177.23 0 0015.56 4.792c5.124 1.336 9.914 2.004 14.25 2.004 3.3 0 6.632-.336 9.902-.992 3.164-.62 6.058-1.692 8.614-3.18 2.442-1.394 4.434-3.234 5.918-5.448 1.406-2.09 2.122-4.806 2.122-8.076 0-5.742-1.93-9.296-6.046-11.046-2.812 3.14-6.628 5.786-11.352 7.86-5.454 2.414-12.218 3.632-20.12 3.632-2.562 0-4.952-.164-7.12-.484a51.939 51.939 0 01-6.61-1.426 123.764 123.764 0 01-6.938-2.226 375.205 375.205 0 00-6.726-2.286 575.495 575.495 0 00-7.352 5.378 761.542 761.542 0 01-4.454 3.292c1.834.766 3.846 1.624 6.056 2.582zM79.804 31.92c-3.118.124-6.32.422-9.554.882-4.242.602-8.124 1.708-11.55 3.282-3.242 1.488-5.918 3.59-7.942 6.226-1.96 2.532-2.906 5.738-2.906 9.792 0 5.226 1.308 9.07 3.992 11.756 2.692 2.688 6.14 3.996 10.558 3.996 1.886 0 3.738-.094 5.536-.284.75-.082 1.43-.164 2.04-.258.398-2.512 1.292-4.828 2.68-6.902 1.714-2.57 4.012-4.82 6.844-6.68 2.75-1.82 5.864-3.21 9.258-4.136a39.61 39.61 0 0110.394-1.376c3.074 0 6.124.292 9.058.88 1.994.392 3.58.746 4.736 1.012 2.91-1.7 5.828-3.47 8.742-5.324 1.582-1.004 3.156-2.028 4.734-3.05a454.72 454.72 0 00-10.378-3.332c-4.7-1.426-8.878-2.618-12.54-3.554-3.618-.934-6.812-1.622-9.48-2.046a80.564 80.564 0 00-4.266-.578c-.188 1.79.004 2.844.214 3.422.338.944.76 1.662 1.256 2.126.558.524 1.11.878 1.688 1.098.79.292 1.242.344 1.434.344h1.756l1.14 1.624.856 1.536-.976 1.778c-.64 1.074-1.8 1.704-3.152 1.704h-.296l-.672-.11c-.042.008-.098.008-.156.008-.54 0-1.676-.242-3.102-.696-1.58-.5-3.102-1.328-4.532-2.45-1.446-1.128-2.704-2.606-3.746-4.368-1.036-1.776-1.598-3.904-1.668-6.322zM98.1 55.7c-5.32 0-9.758 1.022-13.176 3.038-2.504 1.476-3.882 3.386-4.266 5.93a92.52 92.52 0 003.378-1.124c2.75-.98 5.61-2.098 8.554-3.328 2.968-1.23 5.91-2.52 8.832-3.864.25-.124.496-.234.75-.344A27.93 27.93 0 0098.1 55.7zm27.454-1.71c1.878.656 3.766 1.35 5.672 2.044 1.332.496 2.594.976 3.782 1.468a375.82 375.82 0 017.458-5.508l4.082-2.946-3.376-1.26a588.103 588.103 0 00-8.23-3.004 501.662 501.662 0 01-8.562 5.442l-4.176 2.616c1.076.364 2.194.752 3.35 1.148zm39.556-9.532a153.841 153.841 0 0011.454 3.546c5.028 1.332 8.906 2 11.54 2 4.93 0 9.122-.782 12.45-2.352a18.816 18.816 0 003.024-1.73 15.22 15.22 0 00-2.684.624l-.458.148-.878.122c-1.464 0-2.714-.914-3.188-2.324-.504-1.524.024-3.566 2.356-4.488 1.054-.468 2.496-.844 4.3-1.082 1.64-.218 3.21-.324 4.746-.324.386 0 .774.004 1.16.028a24.56 24.56 0 00.492-1.762 9.97 9.97 0 00.148-.718c-3.254-.086-6.766-.304-10.476-.632-4.79-.426-10.132-1.25-15.898-2.446a192.382 192.382 0 00-11.074 6.628 161.46 161.46 0 00-7.014 4.762zm-15.314-5.238c1.676.598 3.27 1.136 4.75 1.632.84.278 1.59.52 2.258.738 3.61-2.594 7.124-5 10.532-7.23a280.156 280.156 0 015.96-3.796c-.862-.222-1.738-.446-2.664-.68a208.544 208.544 0 01-8.796-2.41c-1.574.988-9.32 5.77-11.36 7.062a363.661 363.661 0 01-5 3.124c1.452.548 2.902 1.064 4.32 1.56zm-58.3-14.184c4.754.372 10.468 1.118 17.062 2.208 8.226 1.364 17.77 3.864 28.41 7.45l3.426-2.262c1.918-1.27 4.004-2.59 6.23-3.958l6.156-3.786c-1.46-.434-2.996-.878-4.604-1.344a466.512 466.512 0 00-12.52-3.434c-4.184-1.078-8.254-2-12.106-2.726-3.75-.714-6.968-1.078-9.562-1.078-6.98 0-12.622 1.102-16.762 3.258-2.656 1.388-4.556 3.26-5.73 5.672zm123.61-6.94a20.636 20.636 0 012.484 4.096c1.04 2.218 1.684 4.43 1.934 6.61 5.004-.218 9.094-.992 12.152-2.324 3.786-1.632 4.266-3.512 4.266-4.976 0-.852-.21-1.992-1.848-3.25-1.422-1.114-4.008-1.692-7.45-1.692-3.458 0-6.406.274-8.778.82-.908.212-1.834.454-2.76.716zm-18.95 7.698c1.394.36 2.844.7 4.312 1.032a93.65 93.65 0 006.468 1.234c.906.144 1.804.266 2.66.368-.254-1.008-.668-2.032-1.242-3.066-.89-1.602-1.898-2.898-3.012-3.882-.668.27-1.394.578-2.208.918a65.622 65.622 0 00-4.594 2.148c-.798.412-1.598.828-2.384 1.248zm-17.672-4.702c1.922.54 3.656 1.008 5.238 1.394.872.222 1.618.414 2.212.582a155.78 155.78 0 014.01-2.132c1.77-.91 6.492-3.286 7.114-3.586a20.006 20.006 0 00-4.312-.496c-4.102 0-8.062.54-11.778 1.61a59.946 59.946 0 00-5.332 1.832l2.848.796z" opacity=".6" fill="#FFF"/><path d="M243.442 20.752c0 3.5-2.226 6.372-6.668 8.628-4.454 2.25-11.172 3.524-20.172 3.828-.21 3-1.258 6.046-3.148 9.148 3.61 1.106 6.75 3 9.446 5.704 2.704 2.698 4.054 5.944 4.054 9.75 0 3.398-1.172 6.55-3.528 9.446s-5.39 5.39-9.14 7.5c-3.75 2.102-7.972 3.726-12.668 4.87-4.7 1.142-9.398 1.724-14.11 1.724-3.398 0-6.808-.278-10.2-.84-3.396-.548-7.146-1.462-11.25-2.766-4.114-1.3-8.778-3.058-14.028-5.25-5.25-2.2-11.528-4.946-18.828-8.25a296.124 296.124 0 01-11.102 7.722c-3.7 2.45-7.348 4.582-10.95 6.376-3.602 1.794-7.148 3.222-10.648 4.28-3.5 1.048-6.902 1.58-10.204 1.58-4.996 0-9.07-1.228-12.226-3.68-3.148-2.446-4.976-5.63-5.472-9.516-1.102.202-2.652.422-4.648.664-2 .262-3.95.376-5.852.376-3.3 0-6.352-.432-9.148-1.288-2.796-.856-5.25-2.106-7.352-3.75a16.764 16.764 0 01-4.872-6.08c-1.152-2.382-1.726-5.132-1.726-8.25 0-4.296 1.296-8.026 3.898-11.172 2.602-3.148 6-5.746 10.2-7.796 4.2-2.046 8.95-3.578 14.25-4.578 5.3-1 10.652-1.5 16.05-1.5.796-2.598 2.328-4.922 4.578-6.976 2.25-2.046 4.95-3.796 8.102-5.25 3.148-1.45 6.68-2.546 10.578-3.296a62.583 62.583 0 0111.852-1.128c3.496 0 7.32.324 11.476.98 4.144.648 8.32 1.45 12.524 2.398 4.196.954 8.266 1.98 12.226 3.078a1624.86 1624.86 0 0110.578 3c4.996-2.5 9.696-4.454 14.102-5.852 4.398-1.394 9.304-2.098 14.708-2.098 2.484 0 5.042.356 7.636 1.05 2.594.696 4.75 1.5 6.438 2.398 2.898-1 5.958-1.894 9.152-2.7 3.2-.796 6.796-1.2 10.804-1.2 4.692 0 8.418.876 11.168 2.624 2.75 1.748 4.12 3.796 4.12 6.092zm-110.248 20.1c-6.102-2.102-11.528-3.876-16.274-5.328-4.75-1.444-8.976-2.644-12.67-3.596-3.704-.95-6.954-1.654-9.75-2.102-2.8-.454-5.25-.726-7.348-.828l-.3 2.25c-.3 2.204-.204 4 .3 5.398.496 1.406 1.176 2.5 2.02 3.3.848.796 1.754 1.376 2.704 1.73.946.352 1.77.52 2.476.52.3 0 .372.128.218.372-.148.254-.472.324-.968.23-.704 0-1.676-.2-2.93-.602-1.246-.394-2.454-1.05-3.602-1.95-1.144-.898-2.144-2.074-3-3.524-.852-1.446-1.27-3.226-1.27-5.328 0-.898.102-1.746.3-2.546-4.304 0-8.73.324-13.282.976-4.546.652-8.672 1.828-12.376 3.528-3.696 1.708-6.726 4.074-9.07 7.122-2.352 3.054-3.524 6.93-3.524 11.626 0 6 1.624 10.628 4.872 13.876 3.248 3.248 7.476 4.872 12.672 4.872 2 0 3.95-.102 5.852-.298 1.894-.202 3.394-.452 4.5-.75.094-2.902.898-5.48 2.398-7.73s3.5-4.196 6-5.852c2.504-1.648 5.296-2.894 8.402-3.75 3.102-.856 6.296-1.266 9.598-1.266 2.898 0 5.726.27 8.48.82 2.746.548 4.672.97 5.77 1.278a261.25 261.25 0 009.902-6 466.17 466.17 0 009.9-6.448zm-22.792 14.25c-1.304-.598-3.128-1.146-5.48-1.652-2.352-.49-4.624-.75-6.82-.75-5.906 0-10.8 1.156-14.7 3.456-3.902 2.3-5.852 5.652-5.852 10.046v1.204c0 .5.046.898.148 1.2 2.102-.496 4.55-1.246 7.352-2.25 2.792-.996 5.7-2.122 8.7-3.376 3-1.242 5.976-2.542 8.922-3.888 2.952-1.364 5.526-2.688 7.73-3.99zm21.448 8.552a526.336 526.336 0 01-10.726-4.426c-3.656-1.544-6.726-2.716-9.23-3.53-4.5 2.308-9.472 4.678-14.922 7.132-5.454 2.456-11.778 4.784-18.976 6.976.696 3.5 2.52 6.294 5.476 8.388 2.946 2.112 6.372 3.148 10.274 3.148 3.196 0 6.426-.508 9.672-1.5 3.25-1.004 6.496-2.34 9.75-3.974a86.157 86.157 0 009.598-5.69c3.152-2.14 6.178-4.32 9.084-6.524zm28.2-39.902c-3.208-1-6.878-2.098-11.03-3.296a442.362 442.362 0 00-12.602-3.454 193.844 193.844 0 00-12.296-2.77c-3.958-.75-7.328-1.128-10.128-1.128-7.5 0-13.554 1.2-18.152 3.602-4.602 2.398-7.402 6.102-8.398 11.098 5.296.2 12.176 1.004 20.624 2.402 8.458 1.394 18.23 4 29.332 7.796 1.2-.796 2.746-1.82 4.648-3.07a224.47 224.47 0 016.152-3.898c2.204-1.352 4.352-2.672 6.446-3.972 2.1-1.306 3.904-2.408 5.404-3.31zm-7.2 24.454c-2.396-.902-5.274-1.976-8.626-3.23a658.83 658.83 0 00-9.676-3.52 507.986 507.986 0 01-9.75 6.226c-3.3 2.054-6.554 4.07-9.75 6.074 1.2.304 2.624.726 4.27 1.278 1.648.55 3.394 1.148 5.25 1.8 1.856.648 3.726 1.328 5.628 2.024a97.95 97.95 0 015.25 2.108c3-2.3 5.93-4.476 8.778-6.53 2.848-2.054 5.726-4.134 8.626-6.23zm69.752 9.744c0-7.884-3.352-12.744-10.05-14.544-2.602 3.5-6.45 6.37-11.554 8.626-5.098 2.25-11.394 3.374-18.894 3.374-2.398 0-4.624-.146-6.676-.456a47.129 47.129 0 01-6.222-1.348 116.453 116.453 0 01-6.75-2.168 272.6 272.6 0 00-8.25-2.782 606.44 606.44 0 00-8.624 6.296 627.121 627.121 0 01-8.774 6.454c2.796 1.108 6.454 2.626 10.954 4.574 4.5 1.958 9.32 3.866 14.476 5.708a183.078 183.078 0 0015.826 4.876c5.39 1.394 10.382 2.098 15 2.098 3.5 0 6.996-.348 10.5-1.05 3.5-.696 6.676-1.868 9.528-3.524a20.518 20.518 0 006.898-6.372c1.724-2.604 2.612-5.86 2.612-9.762zm-41.704-28.494a678.603 678.603 0 00-9.528-2.48c-3.75-.95-7.074-1.872-9.972-2.77-1.886 1.2-3.95 2.476-6.14 3.82a449.982 449.982 0 00-6.376 3.976 381.345 381.345 0 01-5.78 3.602c-1.798 1.106-3.254 2.05-4.348 2.852 1.5.496 3.126 1.07 4.874 1.728a343.96 343.96 0 009.97 3.524c1.5.504 2.746.898 3.75 1.2a283.346 283.346 0 0111.626-8.024 316.173 316.173 0 0111.924-7.428zm32.098 3.75c-4.102 0-8.648-.23-13.644-.68-5.008-.45-10.554-1.324-16.648-2.628a194.624 194.624 0 00-12.216 7.282 176.687 176.687 0 00-11.626 8.172c6 2.3 11.646 4.154 16.95 5.546 5.294 1.406 9.394 2.112 12.3 2.112 5.394 0 9.972-.876 13.722-2.624 3.75-1.748 6.622-4.226 8.622-7.422-.602-.2-1.696-.3-3.3-.3-.89 0-2.032.078-3.372.23a18.393 18.393 0 00-3.828.828c-.398.204-.648.148-.75-.148-.11-.304.102-.554.602-.75.898-.398 2.11-.704 3.61-.906 1.5-.196 2.942-.296 4.356-.296.614 0 1.188.024 1.804.078.602.046 1.054.07 1.352.07a20.823 20.823 0 001.418-4.196c.34-1.5.554-2.974.648-4.368zm-8.394-15.904c-1.304-1-3.078-1.824-5.328-2.476-2.25-.652-4.422-.976-6.528-.976-4.402 0-8.602.574-12.598 1.726-4.008 1.152-8.402 2.922-13.208 5.32 1.308.406 2.932.876 4.874 1.43 1.95.55 3.894 1.106 5.864 1.648 1.946.55 3.714 1.028 5.32 1.422 1.598.406 2.696.704 3.304.902 1.594-.902 3.27-1.8 5.02-2.7a512.407 512.407 0 015.176-2.628c1.7-.856 3.254-1.606 4.652-2.25 1.392-.648 2.542-1.118 3.452-1.418zm8.25 14.404c.196-2.598-.43-5.206-1.876-7.8-1.454-2.598-3.176-4.546-5.176-5.852-1 .398-2.278.926-3.824 1.57a72.807 72.807 0 00-4.8 2.25c-1.644.856-3.286 1.708-4.878 2.554-1.618.848-3 1.624-4.2 2.32 1.5.398 3.286.876 5.336 1.43 2.04.55 4.16 1.07 6.368 1.57a97.51 97.51 0 006.676 1.27c2.24.362 4.366.582 6.374.688zm26.09-10.204c0-2.192-.996-4.07-3-5.628-1.992-1.546-5.106-2.32-9.292-2.32-3.704 0-6.86.3-9.458.902a57.075 57.075 0 00-7.792 2.398c2.296 1.5 4.124 3.704 5.472 6.602 1.336 2.894 1.918 5.7 1.714 8.398 6.8 0 12.222-.876 16.286-2.628 4.054-1.748 6.07-4.322 6.07-7.724z" fill="#000"/></g></svg>