<svg width="78" height="78" xmlns="http://www.w3.org/2000/svg"><g stroke="#000" stroke-width="3" fill="none" fill-rule="evenodd"><g fill="#FFF"><path d="M38.939 42.797c4.564-6.797 8.475-11.16 9.447-15.916.863-4.248-2.332-15.268-9.447-19.861-7.115 4.594-10.256 15.605-9.443 19.861 1.102 5.756 4.203 7.572 9.443 15.916z"/><path d="M38.939 42.797c8.283 2.008 13.027 4.551 17.662 4.012C60.639 46.34 69.961 39.244 72 31.02c-6.652-5.242-18.246-4.715-21.867-2.326-4.752 3.136-5.567 7.081-11.194 14.103z"/><path d="M38.939 42.797c-8.279 2.008-13.021 4.551-17.662 4.012-4.035-.469-13.353-7.565-15.394-15.789 6.654-5.242 18.25-4.715 21.867-2.326 4.754 3.136 5.562 7.081 11.189 14.103zm0 0c.436 9.812-.85 12.396 1.812 17.617 1.971 3.861 10.998 10.436 20.789 9.533 2.33-8.193-2.707-19.635-6.424-21.867-4.309-2.588-12.595-4.055-16.177-5.283z"/><path d="M38.939 42.797c-.432 9.812.85 12.396-1.811 17.617-1.969 3.861-11 10.436-20.789 9.533-2.329-8.193 2.708-19.635 6.427-21.867 4.314-2.588 12.597-4.055 16.173-5.283z"/></g><path d="M38.582 42.238V23.5m-.002 18.738l17.699-6.146M38.58 42.238l11.611 14.701M38.58 42.234L28.504 58.027m10.133-15.826l-17.754-5.98"/></g></svg>